<?xml version="1.0" encoding="UTF-8"?> <svg xmlns="http://www.w3.org/2000/svg" width="829" height="240" viewBox="0 0 829 240" fill="none"> <path d="M119.773 232.687C156.271 220.711 182.709 186.339 182.709 145.889V108.949C168.816 121.944 152.371 131.779 134.482 137.879C139.617 170.171 134.332 203.54 119.773 232.687Z" fill="#FFC801"></path> <path d="M91.4531 90.9088C106.903 90.9088 119.47 78.3412 119.47 62.8918C119.47 47.4423 106.903 34.8672 91.4531 34.8672C76.0037 34.8672 63.436 47.4348 63.436 62.8918C63.436 78.3412 76.0037 90.9088 91.4531 90.9088Z" fill="#1890F4"></path> <path d="M96.7085 144.922C85.0242 175.162 63.9459 201.271 36.9243 219.198C52.1342 230.523 70.9745 237.229 91.3492 237.229C92.0228 237.229 92.689 237.192 93.3627 237.177C111.522 209.512 119.067 175.716 114.351 143.051C108.55 144.076 102.659 144.683 96.7085 144.922Z" fill="#FFC801"></path> <path d="M74.6798 144.04C46.6327 140.515 20.5244 128.149 0 108.957V145.889C0 168.217 8.06155 188.689 21.4151 204.573C44.8213 190.231 63.4969 168.981 74.6798 144.04Z" fill="#FFC801"></path> <path d="M91.3418 124.413C127.525 124.413 161.426 107.062 182.706 77.9075V2.53906H0V77.9225C21.2954 107.07 55.1883 124.413 91.3418 124.413ZM91.4541 14.1935C118.303 14.1935 140.153 36.0353 140.153 62.8922C140.153 89.7416 118.311 111.591 91.4541 111.591C64.5972 111.591 42.7554 89.749 42.7554 62.8922C42.7554 36.0428 64.6047 14.1935 91.4541 14.1935Z" fill="#1890F4"></path> <path d="M259.828 90.4077C266.601 96.2732 275.661 99.2583 286.729 99.2583C293.519 99.2583 299.646 98.1585 304.953 95.9764C310.295 93.7769 314.729 90.2681 318.098 85.5199C321.485 80.7543 323.195 74.9761 323.195 68.3077C323.195 65.3924 322.794 62.6343 322.026 60.1031C321.258 57.6068 320.333 55.4247 319.268 53.6267C318.203 51.8112 316.614 50.1179 314.589 48.5817C312.617 47.0979 310.854 45.8759 309.352 44.9682C307.834 44.043 305.686 43.1003 302.963 42.1402C300.275 41.1976 298.18 40.5168 296.731 40.1153C295.282 39.7138 293.135 39.1551 290.237 38.422L284.372 37.008C283.098 36.7112 281.509 36.205 279.659 35.5416C277.843 34.8957 276.499 34.2498 275.661 33.6214C274.823 32.993 274.09 32.19 273.462 31.2298C272.868 30.3046 272.554 29.2398 272.554 28.0178C272.554 25.3644 273.741 23.3918 276.202 21.9779C278.733 20.5115 281.771 19.7783 285.227 19.7783C289.103 19.7783 292.402 20.7559 295.003 22.6761C297.587 24.5789 298.843 27.3021 298.843 30.968V31.6314H320.35V30.968C320.35 21.3843 317.26 13.7558 311.185 8.25694C305.11 2.77557 296.557 0 285.768 0C275.068 0 266.496 2.54864 260.299 7.55869C254.067 12.6036 250.89 19.7958 250.89 28.943C250.89 31.1426 251.117 33.2548 251.588 35.2274C252.042 37.1826 252.601 38.9457 253.247 40.4469C253.893 41.9831 254.87 43.4669 256.127 44.8809C257.384 46.2775 258.466 47.3947 259.479 48.3024C260.509 49.2451 261.958 50.1877 263.808 51.0955C265.641 52.0207 267.09 52.7015 268.207 53.1903C269.359 53.6965 271.018 54.2726 273.13 54.901C275.225 55.5294 276.831 55.9833 277.948 56.2626L282.801 57.4846C285.489 58.113 287.497 58.6018 288.841 58.9684C290.15 59.3176 291.791 59.8587 293.694 60.5744C295.562 61.2727 296.976 61.9535 297.848 62.5819C298.721 63.1929 299.489 64.0483 300.17 65.0957C300.816 66.1081 301.148 67.2777 301.148 68.587C301.148 71.799 299.769 74.2604 296.923 76.1283C294.043 78.031 290.552 78.9912 286.572 78.9912C284.581 78.9912 282.644 78.7293 280.828 78.2056C279.03 77.6993 277.407 76.9138 275.975 75.8839C274.596 74.8714 273.479 73.5272 272.676 71.8863C271.873 70.2454 271.471 68.3251 271.471 66.178V65.5146H249.563V66.178C249.563 76.3552 253.02 84.5249 259.828 90.4077Z" fill="#232323"></path> <path d="M391.311 79.4632L397.909 97.3737H421.423L382.774 1.78125H362.629L325.22 97.3737H348.193L354.652 79.4632H391.311ZM384.363 60.3831H361.599L372.929 29.2754L384.363 60.3831Z" fill="#232323"></path> <path d="M450.576 97.3718H470.738L506.786 1.79688H483.15L460.456 67.1369L437.082 1.79688H413.166L450.418 96.9528L450.576 97.3718Z" fill="#232323"></path> <path d="M577.067 77.0698H539.501V58.9847H572.092V39.2239H539.501V21.9592H575.584V1.79688H517.715V97.3718H577.067V77.0698Z" fill="#232323"></path> <path d="M311.394 200.001C311.394 205.534 309.719 210.056 306.402 213.407C303.085 216.759 298.738 218.47 293.467 218.47C288.195 218.47 283.865 216.776 280.601 213.407C277.319 210.056 275.661 205.534 275.661 200.001V141.434H253.875V200.943C253.875 212.028 257.663 221.263 265.117 228.35C272.571 235.437 282.102 239.034 293.449 239.034C304.796 239.034 314.327 235.437 321.781 228.35C329.235 221.245 333.023 212.028 333.023 200.943V141.434H311.377V200.001H311.394Z" fill="#232323"></path> <path d="M429.401 141.434H403.967L374.116 183.539V141.434H352.33V237.026H374.116V192.337L406.393 237.026H432.927L396.757 187.205L429.401 141.434Z" fill="#232323"></path> <path d="M508.287 189.98C511.395 185.04 512.966 179.454 512.966 173.327C512.966 167.217 511.499 161.666 508.636 156.83C505.756 151.995 501.706 148.172 496.591 145.466C491.494 142.778 485.716 141.416 479.449 141.416H440.678V237.008H462.464V204.818H474.491L492.611 236.677L492.803 237.008H517.225L496.137 200.943C501.217 198.412 505.302 194.729 508.287 189.98ZM462.464 161.613H478.105C480.776 161.613 483.115 162.12 485.087 163.097C487.025 164.075 488.526 165.436 489.521 167.147C490.534 168.875 491.04 170.918 491.04 173.222C491.04 176.661 489.905 179.349 487.549 181.496C485.21 183.609 482.032 184.691 478.087 184.691H462.446V161.613H462.464Z" fill="#232323"></path> <path d="M556.451 141.434L519.041 237.026H542.014L548.473 219.115H585.132L591.73 237.026H615.244L576.595 141.434H556.451ZM578.167 200.035H555.386L566.715 168.928L578.167 200.035Z" fill="#232323"></path> <path d="M647.384 141.434H625.598V237.026H647.384V141.434Z" fill="#232323"></path> <path d="M727.42 197.574L687.06 141.434H667.613V237.026H688.998V179.541L730.492 236.764L730.701 237.026H748.647V141.434H727.42V197.574Z" fill="#232323"></path> <path d="M790.667 216.724V198.639H823.276V178.878H790.667V161.613H826.767V141.434H768.898V237.026H828.251V216.724H790.667Z" fill="#232323"></path> </svg> 